<?xml version="1.0" encoding="UTF-8"?>
<svg id="Layer_1" data-name="Layer 1" xmlns="http://www.w3.org/2000/svg" viewBox="0 0 1080 1080">
  <defs>
    <style>
      .cls-1 {
        fill: #e7f9e6;
      }
    </style>
  </defs>
  <path class="cls-1" d="M459.91,481.33l-9.34,33.84,26.27,27.15,72.56,89.06h52.09v-4.01l-63.66-75.24c-11.13-12.47-22.71-25.83-34.29-36.96l.45-1.77c36.07,2.23,85.94-20.48,91.27-71.24h42.31l15.14-33.39h-61c-4.89-14.25-13.81-22.71-20.94-27.17v-1.77h66.8l15.14-33.39h-199.01v33.39h44.95c24.49,0,42.31,9.35,49.43,28.95h-94.38v33.39h97.05c-7.12,40.08-49.41,49.41-90.83,39.17Z"/>
  <path class="cls-1" d="M663.42,559.91c0,68.26-55.54,123.79-123.79,123.79s-123.79-55.54-123.79-123.79v-28.03h-49.87v28.03c0,95.76,77.9,173.66,173.66,173.66s173.66-77.9,173.66-173.66v-28.03h-49.87v28.03Z"/>
  <rect class="cls-1" x="366.05" y="456.86" width="49.97" height="43.17"/>
  <rect class="cls-1" x="664.07" y="456.04" width="49.97" height="43.17"/>
</svg>