<?xml version="1.0" encoding="UTF-8"?>
<svg id="Layer_1" data-name="Layer 1" xmlns="http://www.w3.org/2000/svg" viewBox="0 0 1080 1080">
  <defs>
    <style>
      .cls-1 {
        fill: #fff;
      }
    </style>
  </defs>
  <g>
    <path class="cls-1" d="M269.12,521.77l-2.9,10.51,8.16,8.44,22.55,27.67h16.19v-1.25l-19.78-23.38c-3.46-3.87-7.06-8.03-10.66-11.49l.14-.55c11.21.69,26.7-6.37,28.36-22.14h13.15l4.7-10.38h-18.95c-1.52-4.43-4.29-7.06-6.51-8.44v-.55h20.76l4.7-10.38h-61.84v10.38h13.97c7.61,0,13.15,2.91,15.36,9h-29.33v10.38h30.16c-2.21,12.45-15.35,15.35-28.23,12.17Z"/>
    <path class="cls-1" d="M332.36,546.19c0,21.21-17.26,38.47-38.47,38.47s-38.47-17.26-38.47-38.47v-8.71h-15.5v8.71c0,29.76,24.21,53.97,53.97,53.97s53.97-24.21,53.97-53.97v-8.71h-15.5v8.71Z"/>
    <rect class="cls-1" x="239.96" y="514.16" width="15.53" height="13.41"/>
    <rect class="cls-1" x="332.56" y="513.91" width="15.53" height="13.41"/>
  </g>
  <g>
    <path class="cls-1" d="M405.78,502.74c13.42,0,25.77,4.04,25.77,19.12,0,8.55-4.87,14.13-11.87,17.1,9.85,2.02,15.79,8.43,15.79,18.88,0,15.44-10.69,23.87-30.4,23.87h-26v-78.96h26.71ZM416.71,524.12c0-8.67-5.7-10.45-13.42-10.45h-9.74v21.37h8.91c10.09,0,14.25-4.63,14.25-10.92ZM420.15,557.95c0-7.96-5.46-12.35-14.84-12.35h-11.76v24.93h11.28c11.64,0,15.32-5.34,15.32-12.59Z"/>
    <path class="cls-1" d="M444.24,554.39c0-20.9,10.33-34.2,30.75-34.2,4.04,0,12.7.95,21.14,4.16v45.95l1.19,11.4h-12.23l-.83-6.29-.47-.12c-3.21,4.63-8.43,8.19-16.39,8.19-17.93,0-23.15-13.54-23.15-29.09ZM482.24,562.82v-30.75c-1.78-.83-5.34-1.66-9.02-1.66-11.28,0-15.08,10.69-15.08,23.51,0,9.74,2.49,19.12,12.35,19.12,7.6,0,11.76-5.11,11.76-10.21Z"/>
    <path class="cls-1" d="M506.09,577.31l4.04-9.97c3.92,2.37,10.92,5.7,17.22,5.7,4.75,0,8.79-2.49,8.79-7.6s-4.39-7.01-10.09-8.67c-8.67-2.61-18.28-5.46-18.28-17.69s10.21-18.88,21.61-18.88c8.9,0,16.62,3.56,21.49,8.43l-6.77,8.19c-4.51-3.8-9.5-6.29-14.37-6.29-4.39,0-8.43,2.14-8.43,7.24s4.63,6.77,10.57,8.67c8.55,2.85,18.29,5.82,18.29,17.93s-9.14,19.12-22.44,19.12c-10.21,0-18.64-3.68-21.61-6.17Z"/>
    <path class="cls-1" d="M559.52,504.76c0-4.27,3.21-7.84,8.07-7.84s8.19,3.44,8.19,7.84-3.44,7.96-8.19,7.96-8.07-3.33-8.07-7.96ZM574.71,521.98v59.72h-14.13v-59.72h14.13Z"/>
    <path class="cls-1" d="M589.43,562.35v-63.17h14.25v62.93c0,7.48,1.54,10.21,6.41,10.21,2.26,0,4.87-.83,7.36-1.9l3.09,9.5c-3.33,2.26-9.02,3.56-14.13,3.56-16.03,0-16.98-10.45-16.98-21.14Z"/>
    <path class="cls-1" d="M633.38,575.53l5.34-11.99c4.51,2.97,13.77,7.01,21.97,7.01,6.41,0,12.7-2.02,12.7-10.92,0-7.48-6.89-9.74-15.08-12.35-10.45-3.09-22.68-7.48-22.68-22.68s11.16-23.27,26.72-23.27c11.04,0,21.02,4.87,27.31,11.16l-7.72,9.62c-6.29-5.11-13.06-8.43-19.47-8.43-5.46,0-11.64,2.26-11.64,9.62s6.77,9.62,15.67,12.47c10.8,3.44,22.2,7.96,22.2,23.27s-11.04,24.1-28.26,24.1c-11.52,0-23.04-4.63-27.07-7.6Z"/>
    <path class="cls-1" d="M700.22,563.42v-64.24h14.13v22.8h16.03v10.92h-16.03v30.28c0,7.36,3.21,9.5,8.07,9.5,3.21,0,5.82-1.31,7.72-2.49l3.56,9.14c-3.56,2.49-9.5,4.16-15.08,4.16-16.86,0-18.4-9.62-18.4-20.07Z"/>
    <path class="cls-1" d="M737.14,554.39c0-20.9,10.33-34.2,30.75-34.2,4.04,0,12.7.95,21.14,4.16v45.95l1.19,11.4h-12.23l-.83-6.29-.47-.12c-3.21,4.63-8.43,8.19-16.39,8.19-17.93,0-23.15-13.54-23.15-29.09ZM775.13,562.82v-30.75c-1.78-.83-5.34-1.66-9.02-1.66-11.28,0-15.08,10.69-15.08,23.51,0,9.74,2.49,19.12,12.35,19.12,7.6,0,11.76-5.11,11.76-10.21Z"/>
    <path class="cls-1" d="M803.14,521.98h11.64l1.43,8.55c2.61-6.65,8.43-10.33,14.37-10.33,3.56,0,7.24.83,9.5,2.26l-2.49,11.75c-2.37-1.19-5.34-2.14-8.43-2.14-6.41,0-10.57,5.1-10.8,11.99v37.64h-14.13v-50.22l-1.07-9.5Z"/>
  </g>
</svg>